# xmcd CD database file
# Copyright (C) 1997 Ti Kan
#
# Track frame offsets:
#  150
#  9170
#  21617
#  33740
#  51995
#  68897
#  79812
#  90800
#  110400
#  124550
#  135535
#  150332
#  165762
#
# Disc length: 2487 seconds
#
# Revision: 1
# Processed by: cddbd v1.4b41PL1 Copyright (c) Steve Scherf et al.
# Submitted via: CDWizzard Release:4.24
#
DISCID=9309b50d
DTITLE=Commander Cody - Live From Deep in the Heart of Texas
DYEAR=1900
DGENRE=
TTITLE0=Armadillo Stomp
TTITLE1=Good Rockin' Tonight
TTITLE2=I'm Coming Home
TTITLE3=Down to Seeds and Stems Again Blues
TTITLE4=Sunset on the Sage
TTITLE5=Little Sally Walker
TTITLE6=Git It
TTITLE7=Oh Momma Momma
TTITLE8=Crying Time
TTITLE9=Diggy Liggy Lo
TTITLE10=Riot in Cell Block #9
TTITLE11=Too Much Fun
TTITLE12=Mean Woman Blues
EXTD=Live\nThe Armadillo World Headquarters\nAustin, Texas
EXTT0=
EXTT1=
EXTT2=
EXTT3=
EXTT4=
EXTT5=
EXTT6=
EXTT7=
EXTT8=
EXTT9=
EXTT10=
EXTT11=
EXTT12=
PLAYORDER=
